<svg xmlns="http://www.w3.org/2000/svg" xmlns:xlink="http://www.w3.org/1999/xlink" width="410.999" height="410.999" viewBox="0 0 410.999 410.999">
  <defs>
    <linearGradient id="linear-gradient" x1="0.5" x2="0.5" y2="1" gradientUnits="objectBoundingBox">
      <stop offset="0" stop-color="#ef0078"/>
      <stop offset="0.172" stop-color="#dd0a86"/>
      <stop offset="0.488" stop-color="#3866ff"/>
      <stop offset="1" stop-color="#00e823"/>
    </linearGradient>
  </defs>
  <g id="Group_2" data-name="Group 2" transform="translate(-778.5 -222.501)">
    <path id="Intersection_1" data-name="Intersection 1" d="M219.607,406.553a207.414,207.414,0,0,0,88.033-.565L295.554,192.335h-6.224V182.5h10v-7h-10v-51h-52v51h-9v7h9v9.835H231.3L219.272,406.482h0a204.2,204.2,0,0,1-64.539-25.868A205.9,205.9,0,0,1,70.2,278.564v0l-.056-.148-.065-.17-.019-.051a204.953,204.953,0,0,1-13.222-71.346v-.054c0-.083,0-.167,0-.25,0-.032,0-.064,0-.1,0-.076,0-.141,0-.218,0-.032,0-.069,0-.1,0-.069,0-.15,0-.219q0-.049,0-.1c0-.1,0-.206,0-.31q0-.179,0-.358c0-.021,0-.043,0-.063q0-.152,0-.3c0-.014,0-.034,0-.047,0-.111,0-.221,0-.332v-.012c.037-6.779.406-13.593,1.1-20.3l0-.015.03-.289.021-.2.011-.1q.085-.8.176-1.593l172.775-23.963V138.848L78.762,113.027a205.633,205.633,0,0,1,371.807,9.905c.741,1.687,1.454,3.37,2.15,5.08l.048.117.01.025a204.544,204.544,0,0,1,10.877,35.929,207.029,207.029,0,0,1,4.175,41.416c0,.1,0,.205,0,.309v.094c0,.076,0,.147,0,.223,0,.032,0,.066,0,.1,0,.076,0,.15,0,.226v.082c0,.083,0,.181,0,.264v.047a204.853,204.853,0,0,1-15.4,76.856q-2.36,5.729-5.069,11.32l-.046.095-.048.1-.108.221v0a206.392,206.392,0,0,1-85.68,90.109q-6.378,3.518-12.99,6.578l-.069.032-.147.068-.227.1-.009,0q-6.07,2.789-12.345,5.189l-.124.047-.05.019a204.736,204.736,0,0,1-27.874,8.4h0a207.382,207.382,0,0,1-88.033.565ZM257.33,78.5v3.694a30.271,30.271,0,0,0-9.539,3.859A30.452,30.452,0,0,0,233.329,112v5.5h61V112a30.508,30.508,0,0,0-25-30.005V78.5a6,6,0,1,0-12,0ZM219.3,406.488l.277.059ZM279.329,281.5h-32v-29a16,16,0,0,1,32,0v29h0ZM58.443,179.624l-.012.095ZM65.2,147.273a205.186,205.186,0,0,0-6.747,32.313A204.289,204.289,0,0,1,65.2,147.273Zm.077-.262-.075.253Zm.083-.279-.07.237Zm.4-1.318q-.117.383-.232.766l-.157.523C65.492,146.273,65.622,145.842,65.753,145.414Zm.085-.276-.071.231Zm.084-.274-.073.236Zm12.839-31.837h0a204.679,204.679,0,0,0-12.83,31.8A204.158,204.158,0,0,1,78.761,113.027Z" transform="translate(721.671 222.5)" fill="#fff"/>
    <path id="Intersection_2" data-name="Intersection 2" d="M58.175,157.922V138.848l151.289-25.82q3.087,6.15,5.751,12.483a205.413,205.413,0,0,1,11.9,38.574q1.791,8.8,2.813,17.8Z" transform="translate(958.019 222.5)" fill="url(#linear-gradient)"/>
  </g>
</svg>
